<?xml version="1.0" encoding="UTF-8" standalone="no"?>
<!DOCTYPE svg PUBLIC "-//W3C//DTD SVG 1.1//EN" "http://www.w3.org/Graphics/SVG/1.1/DTD/svg11.dtd">
<svg width="100%" height="100%" viewBox="0 0 1000 1000" version="1.1" xmlns="http://www.w3.org/2000/svg" xmlns:xlink="http://www.w3.org/1999/xlink" xml:space="preserve" xmlns:serif="http://www.serif.com/" style="fill-rule:evenodd;clip-rule:evenodd;stroke-linejoin:round;stroke-miterlimit:2;">
    <g transform="matrix(18.624805,0,0,15.975825,-2650.768018,-5038.91822)">
        <g transform="matrix(50,0,0,50,145.875696,353.462115)">
            <path d="M0.066,-0L0.066,-0.728L0.295,-0.728L0.412,-0.394C0.417,-0.378 0.423,-0.358 0.429,-0.333C0.436,-0.308 0.442,-0.282 0.449,-0.253C0.455,-0.224 0.461,-0.196 0.467,-0.169C0.473,-0.143 0.477,-0.119 0.481,-0.099L0.452,-0.099C0.456,-0.119 0.461,-0.142 0.466,-0.169C0.472,-0.195 0.478,-0.223 0.484,-0.252C0.491,-0.281 0.497,-0.307 0.504,-0.333C0.51,-0.358 0.516,-0.378 0.521,-0.394L0.637,-0.728L0.866,-0.728L0.866,-0L0.716,-0L0.716,-0.343C0.716,-0.359 0.717,-0.379 0.717,-0.402C0.718,-0.426 0.718,-0.452 0.719,-0.479C0.72,-0.507 0.721,-0.534 0.721,-0.562C0.722,-0.59 0.722,-0.616 0.722,-0.641L0.732,-0.641C0.726,-0.614 0.719,-0.586 0.711,-0.557C0.704,-0.529 0.696,-0.501 0.689,-0.474C0.681,-0.447 0.674,-0.422 0.667,-0.399C0.66,-0.377 0.654,-0.358 0.649,-0.343L0.529,-0L0.403,-0L0.281,-0.343C0.276,-0.358 0.27,-0.376 0.263,-0.399C0.257,-0.421 0.249,-0.446 0.241,-0.473C0.234,-0.499 0.226,-0.527 0.218,-0.556C0.211,-0.585 0.203,-0.613 0.196,-0.641L0.208,-0.641C0.208,-0.618 0.209,-0.592 0.209,-0.564C0.21,-0.537 0.212,-0.428 0.213,-0.404C0.214,-0.38 0.214,-0.359 0.214,-0.343L0.214,-0L0.066,-0Z" style="fill-rule:nonzero;"/>
        </g>
        <g transform="matrix(50,0,0,50,192.465481,353.462115)">
        </g>
    </g>
    <g transform="matrix(10.094282,0,0,8.658586,-1378.331139,-2091.489045)">
        <g transform="matrix(50,0,0,50,145.875696,353.462115)">
            <rect x="0.066" y="-0.728" width="0.149" height="0.728" style="fill-rule:nonzero;"/>
        </g>
        <g transform="matrix(50,0,0,50,159.909851,353.462115)">
            <path d="M0.066,-0L0.066,-0.728L0.215,-0.728L0.215,-0.124L0.529,-0.124L0.529,-0L0.066,-0Z" style="fill-rule:nonzero;"/>
        </g>
        <g transform="matrix(50,0,0,50,186.765319,353.462115)">
            <path d="M0.385,0.01C0.321,0.01 0.263,-0.005 0.212,-0.034C0.161,-0.064 0.12,-0.106 0.09,-0.162C0.061,-0.217 0.046,-0.285 0.046,-0.363C0.046,-0.443 0.061,-0.51 0.09,-0.566C0.12,-0.622 0.161,-0.664 0.212,-0.693C0.263,-0.723 0.321,-0.737 0.385,-0.737C0.45,-0.737 0.507,-0.723 0.559,-0.693C0.61,-0.664 0.65,-0.622 0.68,-0.566C0.71,-0.51 0.725,-0.443 0.725,-0.363C0.725,-0.284 0.71,-0.217 0.68,-0.161C0.65,-0.106 0.61,-0.063 0.559,-0.034C0.507,-0.005 0.45,0.01 0.385,0.01ZM0.385,-0.123C0.423,-0.123 0.456,-0.132 0.484,-0.15C0.512,-0.169 0.534,-0.196 0.55,-0.232C0.566,-0.268 0.573,-0.311 0.573,-0.363C0.573,-0.416 0.566,-0.46 0.55,-0.496C0.534,-0.532 0.512,-0.559 0.484,-0.577C0.456,-0.596 0.423,-0.605 0.385,-0.605C0.348,-0.605 0.315,-0.596 0.287,-0.577C0.258,-0.559 0.236,-0.531 0.221,-0.495C0.205,-0.459 0.197,-0.415 0.197,-0.363C0.197,-0.311 0.205,-0.268 0.221,-0.232C0.236,-0.196 0.258,-0.169 0.287,-0.15C0.315,-0.132 0.348,-0.123 0.385,-0.123Z" style="fill-rule:nonzero;"/>
        </g>
        <g transform="matrix(50,0,0,50,225.287769,353.462115)">
        </g>
    </g>
</svg>
